#define STFST11_width 48
#define STFST11_height 32
static unsigned char STFST11_bits[] = {
   0x00, 0x00, 0x00, 0x00, 0x00, 0x00, 0x00, 0x00, 0xfe, 0x7f, 0x00, 0x00,
   0x00, 0x80, 0x07, 0xe8, 0x01, 0x00, 0x00, 0xc0, 0x6a, 0xb7, 0x03, 0x00,
   0x00, 0xc0, 0x56, 0xed, 0x03, 0x00, 0x00, 0xe0, 0x6b, 0xff, 0x07, 0x00,
   0x00, 0xe0, 0xef, 0xfe, 0x07, 0x00, 0x00, 0xe0, 0xf6, 0xf9, 0x07, 0x00,
   0x00, 0xe0, 0xaa, 0xa7, 0x07, 0x00, 0x00, 0xe0, 0xaa, 0xad, 0x07, 0x00,
   0x00, 0xe0, 0x55, 0x55, 0x07, 0x00, 0x00, 0x60, 0x51, 0x45, 0x07, 0x00,
   0x00, 0xe0, 0x42, 0x89, 0x06, 0x00, 0x00, 0x60, 0xab, 0xe6, 0x07, 0x00,
   0x00, 0xe0, 0xfe, 0x7e, 0x0e, 0x00, 0x00, 0xb0, 0x75, 0x97, 0x05, 0x00,
   0x00, 0x70, 0x75, 0x5c, 0x0d, 0x00, 0x00, 0xa0, 0x0a, 0x52, 0x05, 0x00,
   0x00, 0xb0, 0x48, 0x12, 0x0e, 0x00, 0x00, 0x60, 0x23, 0xe0, 0x05, 0x00,
   0x00, 0xe0, 0x42, 0x87, 0x06, 0x00, 0x00, 0x80, 0xfa, 0x96, 0x02, 0x00,
   0x00, 0x40, 0x81, 0x92, 0x02, 0x00, 0x00, 0x40, 0x15, 0x55, 0x01, 0x00,
   0x00, 0x00, 0xf5, 0x56, 0x01, 0x00, 0x00, 0x80, 0x0a, 0xa8, 0x01, 0x00,
   0x00, 0x00, 0xd3, 0xa7, 0x00, 0x00, 0x00, 0x00, 0x2a, 0x68, 0x00, 0x00,
   0x00, 0x00, 0x54, 0x28, 0x00, 0x00, 0x00, 0x00, 0x50, 0x0f, 0x00, 0x00,
   0x00, 0x00, 0x00, 0x00, 0x00, 0x00, 0x00, 0x00, 0x00, 0x00, 0x00, 0x00 };
