#define STFST10_width 48
#define STFST10_height 32
static unsigned char STFST10_bits[] = {
   0x00, 0x00, 0x00, 0x00, 0x00, 0x00, 0x00, 0x00, 0xfe, 0x7f, 0x00, 0x00,
   0x00, 0x80, 0x0b, 0xf4, 0x01, 0x00, 0x00, 0xc0, 0xf6, 0xdb, 0x03, 0x00,
   0x00, 0xc0, 0x55, 0xf6, 0x03, 0x00, 0x00, 0xe0, 0xb5, 0xff, 0x07, 0x00,
   0x00, 0xe0, 0xf7, 0xfe, 0x07, 0x00, 0x00, 0x60, 0xfb, 0xf5, 0x07, 0x00,
   0x00, 0x60, 0xb5, 0xb7, 0x07, 0x00, 0x00, 0x60, 0xb5, 0xca, 0x07, 0x00,
   0x00, 0xe0, 0xaa, 0x5a, 0x07, 0x00, 0x00, 0xa0, 0x68, 0xa5, 0x06, 0x00,
   0x00, 0x60, 0x41, 0xf1, 0x06, 0x00, 0x00, 0xf0, 0x1f, 0x4d, 0x07, 0x00,
   0x00, 0x70, 0x7f, 0xff, 0x0a, 0x00, 0x00, 0x70, 0xbf, 0x63, 0x0b, 0x00,
   0x00, 0x70, 0x38, 0x57, 0x0e, 0x00, 0x00, 0x30, 0x25, 0x15, 0x05, 0x00,
   0x00, 0x70, 0x05, 0x10, 0x0d, 0x00, 0x00, 0xa0, 0x12, 0xd1, 0x02, 0x00,
   0x00, 0x60, 0x71, 0x87, 0x06, 0x00, 0x00, 0x40, 0x59, 0x61, 0x03, 0x00,
   0x00, 0x40, 0x49, 0x4b, 0x02, 0x00, 0x00, 0x40, 0x45, 0x49, 0x01, 0x00,
   0x00, 0x80, 0x5c, 0x57, 0x01, 0x00, 0x00, 0x80, 0x02, 0xa8, 0x01, 0x00,
   0x00, 0x00, 0xfa, 0xa5, 0x00, 0x00, 0x00, 0x00, 0x05, 0x6a, 0x00, 0x00,
   0x00, 0x00, 0x2a, 0x28, 0x00, 0x00, 0x00, 0x00, 0xa8, 0x0f, 0x00, 0x00,
   0x00, 0x00, 0x00, 0x00, 0x00, 0x00, 0x00, 0x00, 0x00, 0x00, 0x00, 0x00 };
